<svg xmlns="http://www.w3.org/2000/svg" viewBox="0 0 512 512" width="512" height="512">
  <path fill="black" d="M256 0C114.6 0 0 114.6 0 256s114.6 256 256 256s256-114.6 256-256S397.4 0 256 0zM80.5 256c0-26.5 21.5-48 48-48s48 21.5 48 48s-21.5 48-48 48S80.5 282.5 80.5 256zM192 416c-26.5 0-48-21.5-48-48s21.5-48 48-48s48 21.5 48 48S218.5 416 192 416zM224 160c0-26.5 21.5-48 48-48s48 21.5 48 48s-21.5 48-48 48S224 186.5 224 160zM352 416c-26.5 0-48-21.5-48-48s21.5-48 48-48s48 21.5 48 48S378.5 416 352 416zM384 256c0-26.5 21.5-48 48-48s48 21.5 48 48s-21.5 48-48 48S384 282.5 384 256z"/>
</svg>